<svg width="42" height="39" viewBox="0 0 42 39" fill="none" xmlns="http://www.w3.org/2000/svg">
<path id="Vector" d="M1 19.5C1 21.9295 1.51732 24.3351 2.52241 26.5796C3.5275 28.8242 5.00069 30.8636 6.85786 32.5815C8.71504 34.2994 10.9198 35.6621 13.3463 36.5918C15.7728 37.5215 18.3736 38 21 38C23.6264 38 26.2272 37.5215 28.6537 36.5918C31.0802 35.6621 33.285 34.2994 35.1421 32.5815C36.9993 30.8636 38.4725 28.8242 39.4776 26.5796C40.4827 24.3351 41 21.9295 41 19.5C41 17.0705 40.4827 14.6649 39.4776 12.4204C38.4725 10.1758 36.9993 8.13641 35.1421 6.41852C33.285 4.70064 31.0802 3.33794 28.6537 2.40823C26.2272 1.47852 23.6264 1 21 1C18.3736 1 15.7728 1.47852 13.3463 2.40823C10.9198 3.33794 8.71504 4.70064 6.85786 6.41852C5.00069 8.13641 3.5275 10.1758 2.52241 12.4204C1.51732 14.6649 1 17.0705 1 19.5Z" fill="white" stroke="black" stroke-opacity="0.34" stroke-width="0.5" stroke-linecap="round" stroke-linejoin="round"/>
</svg>
