<svg width="34" height="34" viewBox="0 0 34 34" fill="none" xmlns="http://www.w3.org/2000/svg">
<g id="next button">
<path id="Vector" d="M17 0C14.7675 -3.32664e-08 12.5569 0.439718 10.4944 1.29405C8.43184 2.14838 6.55778 3.40059 4.97919 4.97918C3.40059 6.55778 2.14838 8.43185 1.29404 10.4944C0.439716 12.5569 0 14.7675 0 17C0 19.2325 0.439716 21.4431 1.29404 23.5056C2.14838 25.5682 3.40059 27.4422 4.97919 29.0208C6.55778 30.5994 8.43184 31.8516 10.4944 32.706C12.5569 33.5603 14.7675 34 17 34C19.2325 34 21.4431 33.5603 23.5056 32.706C25.5682 31.8516 27.4422 30.5994 29.0208 29.0208C30.5994 27.4422 31.8516 25.5682 32.706 23.5056C33.5603 21.4431 34 19.2325 34 17C34 14.7675 33.5603 12.5569 32.706 10.4944C31.8516 8.43185 30.5994 6.55778 29.0208 4.97918C27.4422 3.40059 25.5682 2.14838 23.5056 1.29405C21.4431 0.439718 19.2325 -3.32664e-08 17 0Z" fill="#0169CD"/>
<g id="Vector_2">
<path id="Vector-22" fill-rule="evenodd" clip-rule="evenodd" d="M23.7625 15.5102L18.9048 22.6741C18.6052 23.1435 18.1205 23.4222 17.6039 23.4222C17.0873 23.4222 16.6026 23.1435 16.303 22.6741L10.9927 15.5102C10.5579 14.9041 10.4563 14.0809 10.7281 13.3664C11 12.6519 11.6015 12.1613 12.2945 12.0889L22.4642 12.0889C23.1565 12.1625 23.7569 12.6536 24.028 13.3679C24.2991 14.0822 24.1971 14.9047 23.7625 15.5102Z" fill="white" stroke="white" stroke-width="1.5" stroke-linecap="round" stroke-linejoin="round"/>
</g>
</g>
</svg>
