<svg width="34" height="34" viewBox="0 0 34 34" fill="none" xmlns="http://www.w3.org/2000/svg">
<g id="next button">
<path id="Vector" d="M0 17C-3.32664e-08 19.2325 0.439718 21.4431 1.29405 23.5056C2.14838 25.5682 3.40059 27.4422 4.97918 29.0208C6.55778 30.5994 8.43185 31.8516 10.4944 32.706C12.5569 33.5603 14.7675 34 17 34C19.2325 34 21.4431 33.5603 23.5056 32.706C25.5682 31.8516 27.4422 30.5994 29.0208 29.0208C30.5994 27.4422 31.8516 25.5682 32.706 23.5056C33.5603 21.4431 34 19.2325 34 17C34 14.7675 33.5603 12.5569 32.706 10.4944C31.8516 8.43185 30.5994 6.55778 29.0208 4.97918C27.4422 3.40059 25.5682 2.14838 23.5056 1.29405C21.4431 0.439718 19.2325 0 17 0C14.7675 0 12.5569 0.439718 10.4944 1.29405C8.43185 2.14838 6.55778 3.40059 4.97918 4.97918C3.40059 6.55778 2.14838 8.43185 1.29405 10.4944C0.439718 12.5569 -3.32664e-08 14.7675 0 17Z" fill="#0169CD"/>
<g id="Vector_2">
<path id="Vector-22" fill-rule="evenodd" clip-rule="evenodd" d="M15.5102 10.2375L22.6741 15.0952C23.1435 15.3948 23.4222 15.8795 23.4222 16.3961C23.4222 16.9127 23.1435 17.3974 22.6741 17.697L15.5102 23.0072C14.9041 23.4421 14.0809 23.5437 13.3664 23.2718C12.6519 23 12.1613 22.3985 12.0889 21.7055L12.0889 11.5358C12.1625 10.8435 12.6536 10.243 13.3679 9.97197C14.0822 9.7009 14.9047 9.80284 15.5102 10.2375Z" fill="white" stroke="white" stroke-width="1.5" stroke-linecap="round" stroke-linejoin="round"/>
</g>
</g>
</svg>
