<svg width="22" height="27" viewBox="0 0 22 27" fill="none" xmlns="http://www.w3.org/2000/svg">
<g id="Vector">
<path id="Vector-6" fill-rule="evenodd" clip-rule="evenodd" d="M14.4737 23.8017C14.5886 24.5577 14.0331 25.2593 13.2294 25.3736L10.9249 25.8425C10.4171 26.0164 9.84806 25.8973 9.46705 25.5372C9.08603 25.1772 8.96256 24.6419 9.15073 24.166C9.3389 23.6901 9.80439 23.3603 10.3432 23.3212L12.6464 22.8536C13.4292 22.6455 14.2443 23.0684 14.4737 23.8017V23.8017Z" stroke="black" stroke-width="2" stroke-linecap="round" stroke-linejoin="round"/>
<path id="Vector-7" fill-rule="evenodd" clip-rule="evenodd" d="M4.0498 19.3944C2.53102 19.3944 1.2998 18.2378 1.2998 16.811V12.936C1.2998 11.5093 2.53102 10.3527 4.0498 10.3527C5.56859 10.3527 6.7998 11.5093 6.7998 12.936V16.811C6.7998 18.2378 5.56859 19.3944 4.0498 19.3944Z" stroke="black" stroke-width="2" stroke-linecap="round" stroke-linejoin="round"/>
<path id="Vector-8" fill-rule="evenodd" clip-rule="evenodd" d="M17.7998 19.3944C16.281 19.3944 15.0498 18.2378 15.0498 16.811V12.936C15.0498 11.5093 16.281 10.3527 17.7998 10.3527C19.3186 10.3527 20.5498 11.5093 20.5498 12.936V16.811C20.5498 18.2378 19.3186 19.3944 17.7998 19.3944Z" stroke="black" stroke-width="2" stroke-linecap="round" stroke-linejoin="round"/>
<path id="Vector-9" d="M19.5498 12.9464C19.5498 13.4987 19.9975 13.9464 20.5498 13.9464C21.1021 13.9464 21.5498 13.4987 21.5498 12.9464H19.5498ZM0.299805 12.9464C0.299805 13.4987 0.74752 13.9464 1.2998 13.9464C1.85209 13.9464 2.2998 13.4987 2.2998 12.9464H0.299805ZM21.5498 16.8247C21.5516 16.2724 21.1053 15.8232 20.553 15.8214C20.0008 15.8197 19.5516 16.2659 19.5498 16.8182L21.5498 16.8247ZM13.0223 24.4027C12.4818 24.5163 12.1357 25.0465 12.2493 25.587C12.3629 26.1274 12.8931 26.4735 13.4336 26.3599L13.0223 24.4027ZM21.5498 12.9464V10.3631H19.5498V12.9464H21.5498ZM21.5498 10.3631C21.5498 4.75927 16.733 0.321442 10.9248 0.321442V2.32144C15.7481 2.32144 19.5498 5.97979 19.5498 10.3631H21.5498ZM10.9248 0.321442C5.1166 0.321442 0.299805 4.75927 0.299805 10.3631H2.2998C2.2998 5.97979 6.10153 2.32144 10.9248 2.32144V0.321442ZM0.299805 10.3631V12.9464H2.2998V10.3631H0.299805ZM19.5498 16.8182C19.5382 20.415 16.8707 23.594 13.0223 24.4027L13.4336 26.3599C18.1232 25.3745 21.5348 21.4467 21.5498 16.8247L19.5498 16.8182Z" fill="black"/>
</g>
</svg>
