<svg width="24" height="24" viewBox="0 0 24 24" fill="none" xmlns="http://www.w3.org/2000/svg">
<g id="bell-notification">
<path id="Vector 40" d="M14.234 5.63791C13.5798 5.23449 12.8387 5 12 5C7.61858 5 5.90339 11.399 5.29684 14.8514C5.09437 16.0038 6.00352 17 7.1736 17H16.8264C17.9965 17 18.9052 16.0004 18.7026 14.848C18.4173 13.2253 17.8873 10.953 16.951 9" stroke="#2C2C30" stroke-width="2" stroke-linejoin="round"/>
<path id="Vector 41" d="M10 18V18C10 19.1046 10.8954 20 12 20V20C13.1046 20 14 19.1046 14 18V18" stroke="#2C2C30" stroke-width="2" stroke-linejoin="round"/>
<path id="Vector 42" d="M18 7C18 8.10457 17.1046 9 16 9C14.8954 9 14 8.10457 14 7C14 5.89543 14.8954 5 16 5C17.1046 5 18 5.89543 18 7Z" stroke="#2C2C30" stroke-width="2" stroke-linejoin="round"/>
</g>
</svg>
