<svg width="22" height="24" viewBox="0 0 22 24" fill="none" xmlns="http://www.w3.org/2000/svg">
<g id="moon">
<path id="Vector-19" fill-rule="evenodd" clip-rule="evenodd" d="M1.00018 11.7929C0.992402 9.67511 1.72281 7.59802 3.10851 5.79731C4.45202 4.04839 6.41698 2.6639 8.74926 1.82289C11.0252 1.00655 13.5641 0.790678 16.0019 1.20623L16.3508 1.27098C14.8102 2.09816 13.5078 3.18104 12.5308 4.44681C11.1451 6.24752 10.4147 8.32461 10.4225 10.4424C10.4048 13.2684 11.7182 15.995 14.0987 18.0736C15.7291 19.491 17.8378 20.4955 20.1668 20.9642C18.2085 22.0164 15.9075 22.5801 13.5524 22.5845C10.1765 22.5682 6.96103 21.4233 4.67634 19.4241C2.29589 17.3455 0.982418 14.6189 1.00018 11.7929Z" stroke="#2C2C30" stroke-width="2" stroke-linecap="round" stroke-linejoin="round"/>
</g>
</svg>
