<svg width="14" height="14" viewBox="0 0 14 14" fill="none" xmlns="http://www.w3.org/2000/svg">
<g id="fa6-solid:arrow-trend-up">
<path id="Vector" d="M9.33369 4.375C8.90348 4.375 8.55591 3.98398 8.55591 3.5C8.55591 3.01602 8.90348 2.625 9.33369 2.625H13.2226C13.6528 2.625 14.0004 3.01602 14.0004 3.5V7.875C14.0004 8.35898 13.6528 8.75 13.2226 8.75C12.7924 8.75 12.4448 8.35898 12.4448 7.875V5.61367L8.32744 10.243C8.02362 10.5848 7.53022 10.5848 7.2264 10.243L4.66702 7.36367L1.32744 11.118C1.02362 11.4598 0.530219 11.4598 0.2264 11.118C-0.0774197 10.7762 -0.0774197 10.2211 0.2264 9.8793L4.11529 5.5043C4.41911 5.1625 4.91251 5.1625 5.21633 5.5043L7.77814 8.38633L11.3438 4.375H9.33369Z" fill="#01A04A"/>
</g>
</svg>
