<svg width="24" height="25" viewBox="0 0 24 25" fill="none" xmlns="http://www.w3.org/2000/svg">
<g id="Vector">
<path id="Vector_2" d="M3.2 24H20.8C21.3835 24 21.9431 23.7577 22.3556 23.3263C22.7682 22.895 23 22.31 23 21.7V3.3C23 2.69 22.7682 2.10499 22.3556 1.67365C21.9431 1.24232 21.3835 1 20.8 1H7.6C7.01652 1 6.45695 1.24232 6.04437 1.67365C5.63179 2.10499 5.4 2.69 5.4 3.3V21.7C5.4 22.31 5.16822 22.895 4.75564 23.3263C4.34306 23.7577 3.78348 24 3.2 24ZM3.2 24C2.61652 24 2.05695 23.7577 1.64436 23.3263C1.23178 22.895 1 22.31 1 21.7V11.35C1 10.085 1.99 9.05 3.2 9.05H5.4" stroke="#2C2C30" stroke-width="2" stroke-linecap="round" stroke-linejoin="round"/>
<path id="Vector_3" d="M18.6 14.8H9.80005" stroke="#2C2C30" stroke-width="2" stroke-linecap="round" stroke-linejoin="round"/>
<path id="Vector_4" d="M15.3 19.4H9.80005" stroke="#2C2C30" stroke-width="2" stroke-linecap="round" stroke-linejoin="round"/>
<path id="Vector_5" d="M9.80005 5.59998H18.6V10.2H9.80005V5.59998Z" stroke="#2C2C30" stroke-width="2" stroke-linecap="round" stroke-linejoin="round"/>
</g>
</svg>
