<svg width="32" height="33" viewBox="0 0 32 33" fill="none" xmlns="http://www.w3.org/2000/svg">
<g id="Suitcase">
<path id="Rectangle 69" d="M4 13C4 11.8954 4.89543 11 6 11H26C27.1046 11 28 11.8954 28 13V16.875C28 17.4273 27.5523 17.875 27 17.875H5C4.44772 17.875 4 17.4273 4 16.875V13Z" stroke="#2C2C30" stroke-width="2" stroke-linecap="round" stroke-linejoin="round"/>
<path id="Rectangle 71" d="M12 7.5C12 6.39543 12.8954 5.5 14 5.5H18C19.1046 5.5 20 6.39543 20 7.5V11H12V7.5Z" stroke="#2C2C30" stroke-width="2" stroke-linecap="round" stroke-linejoin="round"/>
<path id="Rectangle 70" d="M5.33331 17.875H26.6666V25.5C26.6666 26.6046 25.7712 27.5 24.6666 27.5H7.33332C6.22875 27.5 5.33331 26.6046 5.33331 25.5V17.875Z" stroke="#2C2C30" stroke-width="2" stroke-linecap="round" stroke-linejoin="round"/>
<path id="Vector 135" d="M16 16.5V19.25" stroke="#2C2C30" stroke-width="2" stroke-linecap="round" stroke-linejoin="round"/>
</g>
</svg>
