<svg width="34" height="34" viewBox="0 0 34 34" fill="none" xmlns="http://www.w3.org/2000/svg">
<g id="next button">
<path id="Vector" d="M0 17C-3.32664e-08 19.2325 0.439718 21.4431 1.29405 23.5056C2.14838 25.5682 3.40059 27.4422 4.97918 29.0208C6.55778 30.5994 8.43185 31.8516 10.4944 32.706C12.5569 33.5603 14.7675 34 17 34C19.2325 34 21.4431 33.5603 23.5056 32.706C25.5682 31.8516 27.4422 30.5994 29.0208 29.0208C30.5994 27.4422 31.8516 25.5682 32.706 23.5056C33.5603 21.4431 34 19.2325 34 17C34 14.7675 33.5603 12.5569 32.706 10.4944C31.8516 8.43185 30.5994 6.55778 29.0208 4.97918C27.4422 3.40059 25.5682 2.14838 23.5056 1.29405C21.4431 0.439718 19.2325 0 17 0C14.7675 0 12.5569 0.439718 10.4944 1.29405C8.43185 2.14838 6.55778 3.40059 4.97918 4.97918C3.40059 6.55778 2.14838 8.43185 1.29405 10.4944C0.439718 12.5569 -3.32664e-08 14.7675 0 17Z" fill="#0169CD"/>
<g id="Vector_2">
<path id="Vector-22" fill-rule="evenodd" clip-rule="evenodd" d="M16.9787 23.007L9.81484 18.1492C9.34542 17.8497 9.06665 17.365 9.06665 16.8484C9.06665 16.3317 9.34542 15.847 9.81484 15.5475L16.9787 10.2372C17.5847 9.80237 18.408 9.70077 19.1225 9.97263C19.837 10.2445 20.3276 10.846 20.4 11.5389V21.7086C20.3263 22.401 19.8353 23.0014 19.121 23.2725C18.4067 23.5436 17.5842 23.4416 16.9787 23.007Z" fill="white" stroke="white" stroke-width="1.5" stroke-linecap="round" stroke-linejoin="round"/>
</g>
</g>
</svg>
