<svg width="30" height="29" viewBox="0 0 30 29" fill="none" xmlns="http://www.w3.org/2000/svg">
<g id="settings vector">
<path id="Vector" d="M12.9062 5.21645C13.4387 3.09462 16.5613 3.09462 17.0938 5.21645C17.1736 5.53521 17.3303 5.83123 17.5509 6.08041C17.7715 6.32959 18.0499 6.5249 18.3633 6.65044C18.6768 6.77597 19.0165 6.82819 19.3547 6.80283C19.693 6.77748 20.0203 6.67527 20.31 6.50453C22.2387 5.3687 24.4475 7.50262 23.2725 9.36828C23.0961 9.6482 22.9906 9.9644 22.9644 10.2912C22.9382 10.618 22.9922 10.9461 23.1219 11.2489C23.2516 11.5517 23.4534 11.8207 23.7109 12.0339C23.9684 12.2472 24.2743 12.3987 24.6038 12.4761C26.7988 12.9909 26.7988 16.0093 24.6038 16.524C24.274 16.6013 23.9678 16.7527 23.71 16.9659C23.4522 17.1792 23.2502 17.4483 23.1203 17.7513C22.9905 18.0543 22.9364 18.3827 22.9627 18.7096C22.9889 19.0366 23.0946 19.353 23.2713 19.6331C24.4463 21.4975 22.2387 23.6327 20.3087 22.4968C20.0192 22.3263 19.6921 22.2243 19.354 22.199C19.016 22.1737 18.6765 22.2259 18.3633 22.3513C18.05 22.4766 17.7718 22.6717 17.5512 22.9206C17.3306 23.1695 17.1739 23.4652 17.0938 23.7837C16.5613 25.9055 13.4387 25.9055 12.9062 23.7837C12.8264 23.4649 12.6697 23.1689 12.4491 22.9197C12.2285 22.6706 11.9501 22.4753 11.6367 22.3497C11.3232 22.2242 10.9835 22.172 10.6453 22.1973C10.307 22.2227 9.97969 22.3249 9.69 22.4956C7.76125 23.6315 5.5525 21.4975 6.7275 19.6319C6.90388 19.3519 7.00944 19.0358 7.0356 18.709C7.06177 18.3822 7.0078 18.0541 6.87809 17.7512C6.74838 17.4484 6.54658 17.1795 6.28909 16.9662C6.03161 16.753 5.7257 16.6015 5.39625 16.524C3.20125 16.0093 3.20125 12.9909 5.39625 12.4761C5.726 12.3989 6.03222 12.2475 6.29 12.0342C6.54778 11.821 6.74982 11.5519 6.87968 11.2489C7.00955 10.9459 7.06356 10.6175 7.03734 10.2905C7.01111 9.9635 6.90538 9.64711 6.72875 9.36708C5.55375 7.50262 7.76125 5.36749 9.69125 6.50333C10.9412 7.23799 12.5612 6.58791 12.9062 5.21645Z" stroke="#2C2C30" stroke-width="2" stroke-linecap="round" stroke-linejoin="round"/>
<path id="Vector_2" d="M11.2501 14.5C11.2501 15.4614 11.6451 16.3835 12.3484 17.0633C13.0517 17.7431 14.0055 18.125 15.0001 18.125C15.9946 18.125 16.9485 17.7431 17.6517 17.0633C18.355 16.3835 18.7501 15.4614 18.7501 14.5C18.7501 13.5386 18.355 12.6166 17.6517 11.9368C16.9485 11.2569 15.9946 10.875 15.0001 10.875C14.0055 10.875 13.0517 11.2569 12.3484 11.9368C11.6451 12.6166 11.2501 13.5386 11.2501 14.5Z" stroke="#2C2C30" stroke-width="2" stroke-linecap="round" stroke-linejoin="round"/>
</g>
</svg>
