<svg width="31" height="34" viewBox="0 0 31 34" fill="none" xmlns="http://www.w3.org/2000/svg">
<g id="TRANSACTION">
<path id="Vector" d="M7.2334 29.7758V7.24646C7.2334 6.49957 7.49732 5.78326 7.96711 5.25513C8.4369 4.727 9.07407 4.4303 9.73845 4.4303H22.2637C22.9281 4.4303 23.5652 4.727 24.035 5.25513C24.5048 5.78326 24.7687 6.49957 24.7687 7.24646V29.7758L21.0112 26.9596L18.5061 29.7758L16.0011 26.9596L13.496 29.7758L10.991 26.9596L7.2334 29.7758Z" stroke="#2C2C30" stroke-width="2" stroke-linecap="round" stroke-linejoin="round"/>
<path id="Vector_2" d="M18.506 11.4708H15.3747C14.8764 11.4708 14.3985 11.6933 14.0462 12.0894C13.6939 12.4855 13.4959 13.0227 13.4959 13.5829C13.4959 14.1431 13.6939 14.6803 14.0462 15.0764C14.3985 15.4725 14.8764 15.695 15.3747 15.695H16.6272C17.1255 15.695 17.6034 15.9175 17.9557 16.3136C18.3081 16.7097 18.506 17.247 18.506 17.8071C18.506 18.3673 18.3081 18.9045 17.9557 19.3006C17.6034 19.6967 17.1255 19.9192 16.6272 19.9192H13.4959M16.001 19.9192V22.0314M16.001 9.35864V11.4708" stroke="#2C2C30" stroke-width="2" stroke-linecap="round" stroke-linejoin="round"/>
</g>
</svg>
