<svg width="21" height="22" viewBox="0 0 21 22" fill="none" xmlns="http://www.w3.org/2000/svg">
<g id="vuesax/linear/empty-wallet-time">
<g id="Group">
<path id="Vector" d="M16.0335 11.8562C15.6835 12.215 15.4835 12.7312 15.5335 13.2825C15.6085 14.2275 16.4335 14.9187 17.3335 14.9187H18.9168V15.96C18.9168 17.7712 17.5085 19.25 15.7835 19.25H7.36683C8.0585 18.6112 8.50016 17.675 8.50016 16.625C8.50016 14.6912 7.0085 13.125 5.16683 13.125C4.3835 13.125 3.6585 13.4138 3.0835 13.895V10.0713C3.0835 8.26001 4.49182 6.78125 6.21682 6.78125H15.7835C17.5085 6.78125 18.9168 8.26001 18.9168 10.0713V11.3313H17.2335C16.7668 11.3313 16.3418 11.5237 16.0335 11.8562Z" stroke="#292D32" stroke-width="2" stroke-linecap="round" stroke-linejoin="round"/>
<path id="Vector_2" d="M3.0835 10.0712V6.86C3.0835 5.81875 3.69183 4.89121 4.61683 4.52371L11.2335 1.89871C12.2668 1.49621 13.3752 2.29249 13.3752 3.45624V6.78123" stroke="#292D32" stroke-width="2" stroke-linecap="round" stroke-linejoin="round"/>
</g>
<path id="Vector_3" d="M19.7992 12.2239V14.0264C19.7992 14.5077 19.4325 14.9014 18.9658 14.9189H17.3325C16.4325 14.9189 15.6075 14.2277 15.5325 13.2827C15.4825 12.7314 15.6825 12.2151 16.0325 11.8564C16.3408 11.5239 16.7658 11.3314 17.2325 11.3314H18.9658C19.4325 11.3489 19.7992 11.7426 19.7992 12.2239Z" stroke="#292D32" stroke-width="2" stroke-linecap="round" stroke-linejoin="round"/>
<path id="Vector_4" d="M6.8335 10.5H12.6668" stroke="#292D32" stroke-width="2" stroke-linecap="round" stroke-linejoin="round"/>
<g id="Group_2">
<path id="Vector_5" d="M8.50016 16.625C8.50016 17.675 8.0585 18.6112 7.36683 19.25C6.77516 19.7925 6.0085 20.125 5.16683 20.125C3.32516 20.125 1.8335 18.5588 1.8335 16.625C1.8335 15.5225 2.31683 14.5338 3.0835 13.895C3.6585 13.4138 4.3835 13.125 5.16683 13.125C7.0085 13.125 8.50016 14.6912 8.50016 16.625Z" stroke="#292D32" stroke-width="2" stroke-miterlimit="10" stroke-linecap="round" stroke-linejoin="round"/>
<path id="Vector_6" d="M5.37516 15.5312V16.8438L4.3335 17.5" stroke="#292D32" stroke-width="2" stroke-miterlimit="10" stroke-linecap="round" stroke-linejoin="round"/>
</g>
</g>
</svg>
